<?xml version="1.0" encoding="UTF-8" standalone="no"?>
<!-- Created with Inkscape (http://www.inkscape.org/) -->

<svg
   xmlns:dc="http://purl.org/dc/elements/1.1/"
   xmlns:cc="http://creativecommons.org/ns#"
   xmlns:rdf="http://www.w3.org/1999/02/22-rdf-syntax-ns#"
   xmlns:svg="http://www.w3.org/2000/svg"
   xmlns="http://www.w3.org/2000/svg"
   xmlns:sodipodi="http://sodipodi.sourceforge.net/DTD/sodipodi-0.dtd"
   xmlns:inkscape="http://www.inkscape.org/namespaces/inkscape"
   id="svg2"
   sodipodi:version="0.32"
   inkscape:version="0.48.3.1 r9886"
   width="204.44875"
   height="151.52525"
   xml:space="preserve"
   sodipodi:docname="ueb.svg"
   inkscape:output_extension="org.inkscape.output.svg.inkscape"
   version="1.1"><metadata
     id="metadata7"><rdf:RDF><cc:Work
         rdf:about=""><dc:format>image/svg+xml</dc:format><dc:type
           rdf:resource="http://purl.org/dc/dcmitype/StillImage" /></cc:Work></rdf:RDF></metadata><defs
     id="defs5"><inkscape:perspective
       sodipodi:type="inkscape:persp3d"
       inkscape:vp_x="0 : 526.18109 : 1"
       inkscape:vp_y="0 : 1000 : 0"
       inkscape:vp_z="744.09448 : 526.18109 : 1"
       inkscape:persp3d-origin="372.04724 : 350.78739 : 1"
       id="perspective9" /><clipPath
       clipPathUnits="userSpaceOnUse"
       id="clipPath19"><path
         d="M 0,2004.94 0,0 l 1635.59,0 0,2004.94"
         id="path21"
         inkscape:connector-curvature="0" /></clipPath></defs><sodipodi:namedview
     inkscape:window-height="726"
     inkscape:window-width="645"
     inkscape:pageshadow="2"
     inkscape:pageopacity="0.0"
     guidetolerance="10.0"
     gridtolerance="10.0"
     objecttolerance="10.0"
     borderopacity="1.0"
     bordercolor="#666666"
     pagecolor="#ffffff"
     id="base"
     showgrid="false"
     inkscape:zoom="1.9661692"
     inkscape:cx="102.5"
     inkscape:cy="26.53275"
     inkscape:window-x="369"
     inkscape:window-y="25"
     inkscape:current-layer="g17"
     fit-margin-top="0"
     fit-margin-left="0"
     fit-margin-right="0"
     fit-margin-bottom="0"
     inkscape:window-maximized="0" /><g
     id="g11"
     inkscape:groupmode="layer"
     inkscape:label="19339_ueb_typonoire"
     transform="matrix(1.25,0,0,-1.25,0,250.6175)"><g
       id="g13"
       transform="scale(0.1,0.1)"><g
         id="g15"><g
           id="g17"
           clip-path="url(#clipPath19)"><path
             d="m 353.82,1155.27 c -48.566,0 -67.988,41.62 -59.668,97.12 l 2.778,11.1 c -40.239,-66.6 -101.289,-113.78 -162.34,-113.78 -92.965,0 -119.3244,90.2 -98.5158,208.13 l 34.6875,188.71 c 5.5508,33.3 2.7735,58.27 -15.2617,58.27 -16.6523,0 -45.78906,-20.81 -55.5,-31.91 l 0,33.3 c 26.3633,27.75 63.8242,47.18 90.1875,47.18 48.5625,0 69.3785,-40.24 59.6605,-95.75 L 115.16,1364.78 c -16.6483,-90.19 -6.937,-148.46 59.664,-148.46 45.793,0 124.879,67.98 151.242,212.29 l 36.079,206.74 77.699,0 -65.215,-373.25 c -5.551,-31.91 -4.16,-56.88 15.266,-56.88 15.261,0 44.398,20.81 55.496,30.52 l 0,-31.91 c -27.75,-27.75 -66.602,-48.56 -91.571,-48.56"
             style="fill:#231f20;fill-opacity:1;fill-rule:nonzero;stroke:none"
             id="path83"
             inkscape:connector-curvature="0" /><path
             d="m 1101.6,1217.98 c -66.73,-86.15 -146.815,-117.7 -252.37,-117.7 -178.359,0 -287.558,133.47 -287.558,298.48 0,175.93 123.758,298.47 291.195,298.47 160.163,0 269.363,-109.19 269.363,-297.26 l 0,-30.33 -458.64,0 c 7.281,-98.28 82.504,-182 185.64,-182 81.29,0 135.887,29.12 180.78,86.15 l 71.59,-55.81 z m -81.29,231.74 c -3.64,95.85 -66.736,160.16 -171.08,160.16 -104.347,0 -173.507,-64.31 -185.64,-160.16 l 356.72,0"
             style="fill:#231f20;fill-opacity:1;fill-rule:nonzero;stroke:none"
             id="path85"
             inkscape:connector-curvature="0" /><path
             d="m 1294.51,1127.21 0,548.59 113.69,0 0,-180.06 227.39,0 0,-368.53 -341.08,0 z m 227.38,254.84 -113.69,0 0,-141.16 113.69,0 0,141.16"
             style="fill:#231f20;fill-opacity:1;fill-rule:nonzero;stroke:none"
             id="path87"
             inkscape:connector-curvature="0" /><path
             d="m 380.695,1718.23 c 105.196,151.35 277.512,241.71 460.942,241.71 182.973,0 355.043,-90.01 460.283,-240.78 l 36.98,25.62 c -113.68,162.9 -299.57,260.16 -497.263,260.16 -198.16,0 -384.297,-97.61 -497.926,-261.1 l 36.984,-25.61 z M 1303.2,1080.32 C 1198.07,928.422 1025.51,837.738 841.637,837.738 c -184.336,0 -357.133,91.032 -462.227,243.512 l -37.008,-25.57 C 455.93,891.039 642.559,792.738 841.637,792.738 c 198.613,0 384.983,97.953 498.573,262.002 l -37.01,25.58"
             style="fill:#231f20;fill-opacity:1;fill-rule:nonzero;stroke:none"
             id="path89"
             inkscape:connector-curvature="0" /></g></g></g></g></svg>