<?xml version="1.0" encoding="UTF-8" standalone="no"?>
<!-- Created with Inkscape (http://www.inkscape.org/) -->

<svg
   xmlns:dc="http://purl.org/dc/elements/1.1/"
   xmlns:cc="http://creativecommons.org/ns#"
   xmlns:rdf="http://www.w3.org/1999/02/22-rdf-syntax-ns#"
   xmlns:svg="http://www.w3.org/2000/svg"
   xmlns="http://www.w3.org/2000/svg"
   xmlns:sodipodi="http://sodipodi.sourceforge.net/DTD/sodipodi-0.dtd"
   xmlns:inkscape="http://www.inkscape.org/namespaces/inkscape"
   width="1068.0016"
   height="360.37848"
   id="svg3198"
   sodipodi:version="0.32"
   inkscape:version="0.48.0 r9654"
   version="1.0"
   sodipodi:docname="universit_rennes_1_logo.svg"
   inkscape:output_extension="org.inkscape.output.svg.inkscape">
  <defs
     id="defs3200">
    <inkscape:perspective
       sodipodi:type="inkscape:persp3d"
       inkscape:vp_x="0 : 526.18109 : 1"
       inkscape:vp_y="0 : 1000 : 0"
       inkscape:vp_z="744.09448 : 526.18109 : 1"
       inkscape:persp3d-origin="372.04724 : 350.78739 : 1"
       id="perspective3206" />
  </defs>
  <sodipodi:namedview
     id="base"
     pagecolor="#ffffff"
     bordercolor="#666666"
     borderopacity="1.0"
     inkscape:pageopacity="0.0"
     inkscape:pageshadow="2"
     inkscape:zoom="1.0074671"
     inkscape:cx="806.20112"
     inkscape:cy="80.702516"
     inkscape:document-units="px"
     inkscape:current-layer="layer1"
     showgrid="false"
     inkscape:window-width="1680"
     inkscape:window-height="958"
     inkscape:window-x="1200"
     inkscape:window-y="0"
     inkscape:window-maximized="0"
     fit-margin-top="0"
     fit-margin-left="0"
     fit-margin-right="0"
     fit-margin-bottom="0" />
  <metadata
     id="metadata3203">
    <rdf:RDF>
      <cc:Work
         rdf:about="">
        <dc:format>image/svg+xml</dc:format>
        <dc:type
           rdf:resource="http://purl.org/dc/dcmitype/StillImage" />
        <dc:title></dc:title>
      </cc:Work>
    </rdf:RDF>
  </metadata>
  <g
     inkscape:label="Calque 1"
     inkscape:groupmode="layer"
     id="layer1"
     transform="translate(201.35222,22.677171)">
    <g
       id="g4010">
      <path
         id="path3998"
         d="m 584.94148,336.47488 c -7.19255,-2.0059 -11.95208,-4.08761 -17.53142,-7.66787 l -4.76228,-3.05594 0,-12.89576 c 0,-7.09266 0.13202,-12.89575 0.29338,-12.89575 0.16135,0 2.99411,2.62639 6.29502,5.83643 6.97027,6.77838 16.38657,11.7788 24.73692,13.13625 19.186,3.11893 32.60467,-9.60978 25.79923,-24.47268 -2.64008,-5.76586 -9.83333,-11.95108 -24.45921,-21.03158 -21.97859,-13.64545 -28.88996,-20.55352 -32.30038,-32.28495 -3.74824,-12.8935 1.01891,-28.41991 11.29137,-36.77552 7.29828,-5.93642 14.82379,-8.55141 26.34436,-9.15421 11.0037,-0.57577 18.89506,1.02332 28.74931,5.8257 l 6.25,3.04588 0,11.91104 0,11.91103 -7.75,-5.25658 c -9.29381,-6.30369 -16.20959,-8.69415 -25.11483,-8.68104 -21.71725,0.032 -28.73463,18.84163 -11.80556,31.64404 2.29372,1.73459 9.34241,6.15186 15.66378,9.81616 19.70613,11.42303 27.80735,19.00542 31.8155,29.77794 7.40663,19.90643 -0.3736,40.58202 -18.59212,49.40768 -5.12542,2.48293 -6.95807,2.79745 -17.71677,3.04054 -8.19031,0.18507 -13.65287,-0.18981 -17.2063,-1.18081 z"
         style="fill:#f7931d;fill-opacity:1"
         inkscape:connector-curvature="0" />
      <path
         id="path3996"
         transform="translate(310.71187,385.5212)"
         d="m -386.0625,-188.5625 0,70 0,70 10.5,0 10.5,0 0,-30.65625 0,-30.625 7.375,0.5625 c 4.42827,0.33491 8.94027,1.35228 11.3125,2.5625 8.08171,4.12298 16.83419,15.36378 39.625,50.90625 l 4.65625,7.25 12,0 c 6.61109,0 12.03125,-0.35363 12.03125,-0.78125 0,-0.42762 -2.28245,-3.91512 -5.0625,-7.75 -2.78005,-3.83488 -8.47101,-12.36875 -12.65625,-18.96875 -13.36515,-21.07645 -17.43201,-26.71442 -23.90625,-33.09375 l -6.34375,-6.25 4.3125,-2.53125 c 12.53075,-7.34351 19.40837,-22.74391 16.90625,-37.84375 -2.69508,-16.26423 -12.78596,-26.81384 -29.9375,-31.28125 -4.26565,-1.11106 -11.55631,-1.5 -28.53125,-1.5 l -22.78125,0 z m 21,18 9.8125,0 c 21.19666,0 30.14424,7.05605 29,22.875 -0.5623,7.77374 -3.96103,13.03054 -10.5,16.25 -4.0646,2.00121 -6.64571,2.43707 -16.5625,2.71875 l -11.75,0.3125 0,-21.0625 0,-21.09375 z"
         style="fill:#f7931d;fill-opacity:1"
         inkscape:connector-curvature="0" />
      <path
         id="path3992"
         d="m 47.64778,266.95956 0,-70 39.499998,0 39.500002,0 0,9.5 0,9.5 -29.000002,0 -29.000001,0 0,20.5 0,20.5 28.000001,0 28.000002,0 0,9.5 0,9.5 -28.000002,0 -28.000001,0 0,21 0,21 30.000001,0 30.000002,0 0,9.5 0,9.5 -40.500002,0 -40.499998,0 0,-70 z"
         style="fill:#f7931d;fill-opacity:1"
         inkscape:connector-curvature="0" />
      <path
         id="path3990"
         d="m 148.64778,266.95956 0,-70 8.75,0.0664 8.75,0.0664 46.25,52.99923 46.25,52.99924 0,-53.06561 0,-53.0656 10,0 10,0 0,70 0,70 -8.86225,0 -8.86225,0 -45.88775,-52.92316 -45.88775,-52.9231 -0.25876,52.9231 -0.25877,52.9231 -9.99123,0 -9.99124,0 0,-70 z"
         style="fill:#f7931d;fill-opacity:1"
         inkscape:connector-curvature="0" />
      <path
         id="path3988"
         d="m 307.64778,266.95956 0,-70 8.75,0.063 8.75,0.063 46,52.73971 46,52.73971 0.25876,-52.80271 0.25877,-52.80272 9.99123,0 9.99124,0 0,70 0,70 -8.88416,0 -8.88416,0 -45.86584,-52.91574 -45.86584,-52.91576 -0.25876,52.91576 -0.25877,52.91575 -9.99123,0 -9.99124,0 0,-70 z"
         style="fill:#f7931d;fill-opacity:1"
         inkscape:connector-curvature="0" />
      <path
         id="path3986"
         d="m 467.31445,336.29289 c -0.36667,-0.36666 -0.66667,-31.86666 -0.66667,-70 l 0,-69.33333 40,0 40,0 0,9.5 0,9.5 -29.5,0 -29.5,0 0,20.5 0,20.5 28.5,0 28.5,0 0,9.5 0,9.5 -28.5,0 -28.5,0 0,21 0,21 30.5,0 30.5,0 0,9.5 0,9.5 -40.33333,0 c -22.18334,0 -40.63334,-0.3 -41,-0.66667 z"
         style="fill:#f7931d;fill-opacity:1"
         inkscape:connector-curvature="0" />
      <path
         id="path3984"
         d="m 739.64778,277.37623 c 0,-31.12084 -0.3375,-56.42564 -0.75,-56.23289 -0.4125,0.19274 -6.4155,3.15524 -13.33999,6.58333 -6.9245,3.42809 -13.05858,6.23289 -13.63129,6.23289 -0.91328,0 -3.83774,-8.96244 -3.07375,-9.41996 0.16227,-0.0972 5.92003,-2.96545 12.79503,-6.37396 6.875,-3.4085 16.55,-9.22744 21.5,-12.93096 9.8586,-7.37606 26.70363,-23.83442 29.06187,-28.39477 1.30454,-2.5227 2.04506,-2.88035 5.96381,-2.88035 l 4.47432,0 0,80 0,80 -21.5,0 -21.5,0 0,-56.58333 z"
         style="fill:#f7931d;fill-opacity:1"
         inkscape:connector-curvature="0" />
      <path
         id="path3982"
         transform="translate(310.71187,385.5212)"
         d="m 236.3125,-408.1875 c -0.0601,0.0742 -0.39227,1.35167 -0.75,2.84375 -0.5365,2.23776 -0.13003,3.10041 2.3125,4.90625 4.92906,3.64421 4.47835,4.84348 -1.03125,2.75 -5.37419,-2.04203 -18.21584,-2.66241 -23.40625,-1.125 -2.21301,0.6555 -3,1.51179 -3,3.21875 0,1.95173 0.8275,2.5012 5.21875,3.625 2.86347,0.73281 6.91347,2.11158 9,3.0625 5.5473,2.52813 5.99511,2.65258 3.78125,0.875 -1.1,-0.88323 -2,-2.13201 -2,-2.75 0,-0.61799 -0.64219,-1.30781 -1.40625,-1.5625 -0.8017,-0.26723 -1.09876,-0.0211 -0.71875,0.59375 0.46471,0.75192 -0.28652,0.73721 -2.59375,0 -1.79811,-0.57454 -4.51202,-1.25273 -6.03125,-1.53125 -1.51923,-0.27852 -3.01177,-0.91966 -3.3125,-1.40625 -0.86596,-1.40116 2.3939,-1.01462 5.625,0.65625 1.62269,0.83912 2.9375,1.12498 2.9375,0.625 0,-0.49998 -1.0125,-1.27583 -2.25,-1.71875 -3.75577,-1.34425 11.1967,-1.73034 15.75,-0.40625 5.298,1.54064 10.5,4.7973 10.5,6.5625 0,1.56869 2.73067,1.87016 4.84375,0.53125 0.82717,-0.52412 0.98222,-1.12472 0.375,-1.5 -0.54779,-0.33855 -1.317,-1.8573 -1.6875,-3.375 -0.3705,-1.5177 -1.994,-4.41912 -3.625,-6.46875 L 241.875,-403.5 l 4.59375,1.9375 c 8.74684,3.74933 17.70255,11.48134 18.6875,16.125 0.27892,1.31496 2.75177,3.8125 3.78125,3.8125 0.275,0 1.23049,-0.56907 2.125,-1.25 1.3175,-1.00291 1.48661,-2.15744 0.875,-6.1875 l -0.75,-5 3.9375,4.5 c 2.1645,2.47214 4.55605,5.71398 5.34375,7.1875 0.78771,1.47352 2.36757,2.95308 3.5,3.3125 3.31746,1.05292 4.9549,-1.1958 5,-6.875 l 0.0625,-5.125 7.1875,7.59375 c 8.59898,9.07248 13.04989,16.23283 16.9375,27.21875 3.02077,8.53636 6.78125,27.9362 6.78125,35.03125 l 0,4.15625 -5.3125,-9.625 c -9.40256,-17.01766 -18.91834,-28.87905 -29.53125,-36.84375 -9.86499,-7.40341 -16.91119,-9.87408 -32.09375,-11.25 -12.56282,-1.1385 -12.7731,-1.19698 -14,-3.96875 -0.68477,-1.547 -1.66947,-2.8125 -2.1875,-2.8125 -0.51802,0 -0.2492,1.27416 0.5625,2.84375 l 1.46875,2.875 -8.96875,0.625 c -9.40772,0.66778 -21.03611,2.9619 -26.4375,5.21875 -4.22091,1.76361 -9.57151,0.16239 -14.25,-4.25 -3.23336,-3.04945 -3.41833,-3.56578 -3.09375,-8.78125 0.18972,-3.04903 0.17707,-5.532 -0.0312,-5.53125 -0.20832,7.5e-4 -4.41023,3.9375 -9.34375,8.75 -19.86473,19.37747 -31.96633,36.83439 -37.96875,54.84375 -1.78644,5.35995 -2.28025,9.13996 -2.28125,16.90625 -10e-4,8.95698 0.27073,10.6173 2.8125,15.8125 5.07772,10.37853 15.04182,14.03012 27.9375,10.28125 7.44005,-2.16288 19.5432,-10.39195 25.9375,-17.65625 l 5.1875,-5.90625 6.65625,0.625 c 5.62693,0.52297 7.90442,0.19642 14.875,-2.125 6.59223,-2.19542 9.55503,-2.67852 14.8125,-2.34375 4.73791,0.30169 5.95879,0.16151 4.40625,-0.53125 -3.00858,-1.34247 -2.69812,-4.20744 0.59375,-5.4375 5.33301,-1.99277 6.1288,-2.09035 9.625,-1.125 4.89512,1.35161 7.23415,4.77886 8.59375,12.65625 1.39421,8.07787 2.28829,9.72036 13.21875,23.8125 10.04362,12.94876 15.60389,21.0681 19.09375,27.96875 4.25139,8.40648 32.11885,44.78263 39.25,51.21875 11.43685,10.32218 26.68248,18.1344 43.40625,22.25 9.29678,2.28787 14.53618,2.40908 23.5625,0.5 11.95083,-2.52763 22.66623,-8.41791 31.5,-17.28125 12.77598,-12.81876 17.41895,-25.23961 17.46875,-46.71875 0.0617,-26.61802 -6.76733,-42.30084 -25.0625,-57.6875 -4.73235,-3.98001 -9.74466,-9.58054 -13.65625,-15.1875 -3.40189,-4.87632 -8.45155,-10.84512 -11.21875,-13.28125 -4.91614,-4.32799 -20.31729,-12.90147 -21.34375,-11.875 -0.65868,0.65868 -1.13834,0.3386 8.8125,6.3125 4.675,2.8066 10.075,6.50064 12,8.21875 l 3.5,3.125 -4.5,-0.59375 c -8.67366,-1.14219 -10.86373,-2.32738 -11.59375,-6.21875 -0.54735,-2.91758 -1.38789,-3.86527 -4.78125,-5.40625 -2.26517,-1.02865 -5.1494,-1.86292 -6.40625,-1.875 -1.94957,-0.0187 -2.13545,-0.31426 -1.25,-1.96875 1.21539,-2.27098 0.78303,-2.65541 -4.21875,-3.59375 -3.12395,-0.58606 -3.75,-1.0938 -3.75,-3.15625 0,-1.35891 -1.16152,-5.8817 -2.59375,-10.03125 -1.99162,-5.77024 -2.32292,-7.72666 -1.375,-8.3125 0.78631,-0.48597 0.9872,-1.71409 0.5625,-3.40625 -1.16819,-4.65441 0.39414,-9.32883 4.59375,-13.65625 3.03589,-3.12828 4.57347,-4.00661 6.40625,-3.65625 1.32303,0.25291 2.40625,0.0987 2.40625,-0.375 0,-0.47373 -0.5625,-0.90264 -1.25,-0.9375 -0.6875,-0.0349 -0.125,-0.54645 1.25,-1.125 1.375,-0.57855 6.81395,-1.21726 12.09375,-1.4375 l 9.59375,-0.40625 5.0625,4.03125 c 2.77394,2.20864 5.88499,4.0084 6.90625,4 1.56856,-0.0129 1.61087,-0.16819 0.34375,-1 -1.26213,-0.82854 -1.28946,-1.15588 -0.125,-1.90625 1.57914,-1.01758 6.55282,0.18222 8.875,2.125 0.84938,0.71061 3.14019,1.80767 5.125,2.4375 1.98482,0.62983 2.8375,1.19233 1.875,1.25 -3.31043,0.19835 -1.73164,1.62573 6.25,5.71875 7.53319,3.86305 9.58012,4.33012 6.8125,1.5625 -0.66,-0.66 -2.01,-1.1875 -3,-1.1875 -0.99,0 -1.8125,-0.38203 -1.8125,-0.84375 0,-0.46172 -1.2375,-1.4146 -2.75,-2.125 -1.5859,-0.74488 -2.22088,-1.4892 -1.5,-1.75 3.87351,-1.40135 -0.25759,-5.02676 -15.46875,-13.625 -10.55784,-5.96791 -16.67757,-8.36168 -24.78125,-9.65625 -15.81595,-2.52661 -31.96752,4.93151 -40.0625,18.5 -1.31252,2.2 -3.96267,5.2453 -5.90625,6.78125 -3.42233,2.7046 -3.5237,3.00408 -3.5,9.5 0.0134,3.68905 0.46727,8.74375 1.03125,11.21875 1.46499,6.4291 6.99645,18 8.59375,18 0.75697,0 1.34375,1.04339 1.34375,2.375 0,2.76615 12.01467,16.31046 15.71875,17.71875 1.29017,0.49052 2.63599,1.6855 3,2.65625 0.36401,0.97076 3.7368,5.3248 7.5,9.6875 12.3744,14.34569 22.72384,32.58246 26.21875,46.21875 2.18848,8.53889 2.06057,18.96811 -0.28125,23.375 -2.21294,4.16436 -7.48591,7.96875 -11,7.96875 -10.05749,0 -26.78347,-16.66226 -40.15625,-40 -2.36367,-4.125 -8.02012,-13.58713 -12.59375,-21.03125 -8.51259,-13.85527 -14.08574,-24.96875 -12.5,-24.96875 2.69707,0 3.95169,-13.98031 2.15625,-24 -5.55178,-30.98233 -12.54616,-44.44151 -31.25,-60.0625 -3.12543,-2.61029 -5.42335,-5.01415 -5.09375,-5.34375 1.45683,-1.45683 -0.62978,-0.3877 -3.78125,1.9375 -2.54101,1.87479 -3.35556,3.1745 -3.125,4.9375 0.28393,2.17118 -0.10705,2.01737 -4.125,-1.78125 -2.43228,-2.29952 -5.75332,-5.3063 -7.40625,-6.6875 l -3,-2.53125 -2.1875,3.8125 -2.21875,3.8125 -3.0625,-2.59375 c -4.87901,-4.10542 -10.30251,-6.4643 -17.0625,-7.40625 -3.44691,-0.4803 -6.3149,-0.79293 -6.375,-0.71875 z M 342,-374.5625 c 0.58246,0 0.77742,0.45 0.4375,1 -0.33992,0.55 -0.81996,1 -1.0625,1 -0.24254,0 -0.4375,-0.45 -0.4375,-1 0,-0.55 0.48004,-1 1.0625,-1 z m -0.53125,4.375 c 0.37776,-0.0212 0.46875,0.53263 0.46875,1.8125 0,1.33722 -0.66124,3.30738 -1.46875,4.375 -1.39255,1.84112 -1.4698,1.77893 -1.5,-1.1875 -0.0175,-1.72016 0.64375,-3.69031 1.46875,-4.375 0.47377,-0.39319 0.80459,-0.6123 1.03125,-0.625 z m 0.0312,7.625 c 0.24254,0 0.4375,0.45 0.4375,1 0,0.55 -0.48004,1 -1.0625,1 -0.58246,0 -0.77742,-0.45 -0.4375,-1 0.33992,-0.55 0.81996,-1 1.0625,-1 z m 42.8125,66.28125 c 0.51721,-0.002 1.46726,1.39513 2.09375,3.46875 0.37565,1.24336 0.24947,2.25 -0.28125,2.25 -1.09203,0 -2.1875,-2.37972 -2.1875,-4.78125 0,-0.64888 0.1399,-0.93662 0.375,-0.9375 z"
         style="fill:#a72c31;fill-opacity:1"
         inkscape:connector-curvature="0" />
      <path
         id="path3972"
         d="m -191.85222,172.60806 c -3.77965,-1.73265 -6.00617,-4.22235 -7.96186,-8.90298 -1.2394,-2.96629 -1.53814,-8.34891 -1.53814,-27.7134 l 0,-24.03212 3.92068,0 3.92068,0 0.32932,23.92891 c 0.30935,22.47815 0.45675,24.09945 2.43109,26.74176 2.56929,3.43855 7.25512,4.94649 11.54646,3.71575 1.73153,-0.4966 4.09403,-2.16868 5.25,-3.71575 1.97434,-2.64231 2.12174,-4.26361 2.43109,-26.74176 l 0.32932,-23.92891 3.98308,0 3.98309,0 -0.31241,25.25 c -0.28612,23.12597 -0.48064,25.53563 -2.3124,28.64547 -3.48692,5.91986 -6.68827,7.56303 -15.31751,7.86205 -4.92896,0.1708 -8.75774,-0.22669 -10.68249,-1.10902 z"
         style="fill:#f7931d;fill-opacity:1"
         inkscape:connector-curvature="0" />
      <path
         id="path3970"
         d="m 129.64778,172.20801 c -4.21506,-2.10566 -8,-8.9471 -8,-14.46034 l 0,-3.78811 4.5,0 c 4.44184,0 4.5,0.0435 4.5,3.36514 0,6.79614 5.94391,10.59358 13.37144,8.54275 4.24637,-1.17248 5.62856,-3.32199 5.62856,-8.75325 0,-4.7776 -2.47121,-7.19126 -13.05924,-12.75511 -3.84766,-2.02189 -8.09653,-4.98438 -9.44195,-6.58331 -6.98593,-8.3023 -4.60036,-20.51092 5.00119,-25.59466 4.55299,-2.41067 15.73045,-2.18662 19.17397,0.38435 4.35128,3.24869 6.51012,6.84772 7.06604,11.77985 l 0.52009,4.61424 -4.38005,-0.005 c -4.34591,-0.005 -4.39174,-0.0422 -5.88005,-4.75 -1.3255,-4.19279 -1.92652,-4.85014 -5.16641,-5.65069 -9.85528,-2.43518 -15.81594,8.39865 -7.97083,14.48741 1.45048,1.12575 6.22656,4.15546 10.61351,6.73268 9.94904,5.84481 12.52432,9.3582 12.52218,17.08373 -0.002,7.63335 -2.35664,12.02634 -7.96034,14.85212 -5.66103,2.85469 -15.83873,3.09583 -21.03811,0.49845 z"
         style="fill:#f7931d;fill-opacity:1"
         inkscape:connector-curvature="0" />
      <path
         id="path3968"
         d="m -140.35222,142.41184 0,-30.54771 6.1936,0.29771 6.19361,0.29772 11.05639,24.38802 11.0564,24.38802 0.26747,-24.63802 0.26747,-24.63802 3.98253,0 3.98253,0 0,30.5 0,30.5 -5.8834,0 -5.8834,0 -11.3666,-25.03321 -11.3666,-25.03321 -0.26717,25.03321 -0.26717,25.03321 -3.98283,0 -3.98283,0 0,-30.54772 z"
         style="fill:#f7931d;fill-opacity:1"
         inkscape:connector-curvature="0" />
      <path
         id="path3966"
         d="m -73.35222,142.45954 0,-30.5 4,0 4,0 0,30.5 0,30.5 -4,0 -4,0 0,-30.5 z"
         style="fill:#f7931d;fill-opacity:1"
         inkscape:connector-curvature="0" />
      <path
         id="path3964"
         d="m -29.67463,172.20954 c -0.24224,-0.4125 -4.114841,-13.575 -8.605771,-29.25 -4.49093,-15.675 -8.35517,-29.0625 -8.58719,-29.75 -0.2985,-0.88448 0.97566,-1.25 4.35734,-1.25 l 4.7792,0 6.417591,24.918 c 3.52968,13.70489 6.66179,24.76707 6.96025,24.58261 0.29846,-0.18445 3.45828,-11.39562 7.02182,-24.9137 l 6.47917,-24.57833 4.2500005,-0.004 c 2.3375,-0.002 4.25,0.47111 4.25,1.05215 0,0.58104 -3.62706,13.51854 -8.0601405,28.75 -4.43308,15.23146 -8.28841,28.48106 -8.56739,29.44356 -0.39359,1.35789 -1.59922,1.75 -5.38084,1.75 -2.68048,0 -5.07179,-0.3375 -5.31404,-0.75 z"
         style="fill:#f7931d;fill-opacity:1"
         inkscape:connector-curvature="0" />
      <path
         id="path3962"
         d="m 14.64778,142.45956 0,-30.5 16,0 16,0 0,3.5 0,3.5 -11.5,0 -11.5,0 0,9.5 0,9.5 11,0 11,0 0,3.5 0,3.5 -11,0 -11,0 0,10 0,10 12,0 12,0 0,4 0,4 -16.5,0 -16.5,0 0,-30.5 z"
         style="fill:#f7931d;fill-opacity:1"
         inkscape:connector-curvature="0" />
      <path
         id="path3960"
         transform="translate(310.71187,385.5212)"
         d="m -244.0625,-273.5625 0,30.5 0,30.5 4.5,0 4.5,0 0,-14.125 0,-14.09375 6.5,0.40625 c 8.96593,0.57091 9.63775,1.40823 10.59375,13.75 1.08332,13.98544 1.11962,14.0625 6.59375,14.0625 l 4.53125,0 -0.625,-3.28125 c -0.3394,-1.80916 -1.03071,-7.61572 -1.53125,-12.90625 -0.98357,-10.39615 -1.93008,-13.12948 -5.25,-14.90625 l -2.15625,-1.15625 2.25,-1.1875 c 5.70925,-3.05549 8.05967,-13.83304 4.53125,-20.65625 -2.99191,-5.78571 -6.39511,-6.90225 -21.1875,-6.90625 l -13.25,0 z m 9,6.78125 7.125,0.40625 c 8.37864,0.47344 10.875,2.49982 10.875,8.84375 0,5.1987 -0.75652,6.7904 -4.0625,8.5 -1.55604,0.80465 -5.32269,1.46875 -8.375,1.46875 l -5.5625,0 0,-9.625 0,-9.59375 z"
         style="fill:#f7931d;fill-opacity:1"
         inkscape:connector-curvature="0" />
      <path
         id="path3956"
         d="m 180.64778,142.45956 0,-30.5 4.5,0 4.5,0 0,30.5 0,30.5 -4.5,0 -4.5,0 0,-30.5 z"
         style="fill:#f7931d;fill-opacity:1"
         inkscape:connector-curvature="0" />
      <path
         id="path3954"
         d="m 223.64778,145.95956 0,-27 -8,0 -8,0 0,-3.5 0,-3.5 20,0 20,0 0,3.5 0,3.5 -8,0 -8,0 0,27 0,27 -4,0 -4,0 0,-27 z"
         style="fill:#f7931d;fill-opacity:1"
         inkscape:connector-curvature="0" />
      <path
         id="path3952"
         d="m 264.64778,142.45956 0,-30.5 16,0 16,0 0,3.5 0,3.5 -11.5,0 -11.5,0 0,9.5 0,9.5 11,0 11,0 0,3.5 0,3.5 -11,0 -11,0 0,10 0,10 12,0 12,0 0,4 0,4 -16.5,0 -16.5,0 0,-30.5 z"
         style="fill:#f7931d;fill-opacity:1"
         inkscape:connector-curvature="0" />
      <path
         id="path3950"
         transform="translate(310.71187,385.5212)"
         d="m 34.9375,-273.5625 0,30.59375 0,30.625 12.25,-0.375 c 10.73598,-0.31869 12.77535,-0.65747 16.5,-2.78125 6.8165,-3.88676 8.61981,-8.74945 9.09375,-24.625 0.45468,-15.23072 -0.85056,-23.0945 -4.53125,-27.46875 -4.38948,-5.2166 -6.95239,-5.96875 -20.75,-5.96875 l -12.5625,0 z m 8,7 5.75,0.0937 c 8.11924,0.14075 10.41217,1.00467 13.0625,4.9375 2.23134,3.31109 2.30252,4.12208 2,19.3125 l -0.3125,15.8125 -3.28125,2.9375 c -2.94672,2.63072 -3.94811,2.90625 -10.25,2.90625 l -6.96875,0 0,-23 0,-23 z"
         style="fill:#f7931d;fill-opacity:1"
         inkscape:connector-curvature="0" />
      <path
         id="path3946"
         d="m 406.64778,142.45956 0,-30.5 16,0 16,0 0,3.5 0,3.5 -12,0 -12,0 0,9.5 0,9.5 11,0 11,0 0,3.5 0,3.5 -11,0 -11,0 0,10 0,10 12,0 12,0 0,4 0,4 -16,0 -16,0 0,-30.5 z"
         style="fill:#f7931d;fill-opacity:1"
         inkscape:connector-curvature="0" />
      <path
         id="path3944"
         d="m 518.70509,155.01687 c -2.7256,-2.7256 -4.42503,-8.96061 -3.27723,-12.02377 0.78018,-2.08209 0.32728,-3.22165 -2.90615,-7.31224 -5.15492,-6.52147 -6.28419,-11.06989 -4.92437,-19.83416 2.23189,-14.3849 7.4241,-22.965839 16.61811,-27.464049 4.8335,-2.36481 6.33984,-2.62618 12.70791,-2.20502 7.70756,0.50976 13.97941,2.74911 24.22442,8.6493 6.49291,3.73933 20.5,17.140109 20.5,19.612649 0,0.83599 0.38398,1.51998 0.85328,1.51998 0.46931,0 2.94431,3.14461 5.5,6.98801 6.54622,9.8446 6.29311,12.23104 -0.92047,8.67881 -2.62633,-1.2933 -4.65205,-3.07388 -5.02492,-4.41682 -0.43071,-1.55129 -1.38571,-2.25 -3.07532,-2.25 -1.34783,0 -2.19843,-0.40803 -1.89021,-0.90674 0.30822,-0.49871 -0.2823,-0.68637 -1.31226,-0.41703 -1.24675,0.32603 -3.05322,-0.72587 -5.40478,-3.14719 -1.94267,-2.0003 -5.16945,-4.089 -7.17063,-4.64155 -2.00117,-0.55255 -5.24797,-2.09685 -7.21509,-3.43178 -4.31129,-2.92572 -8.9523,-4.37378 -16.4698,-5.1388 l -5.63019,-0.57296 -1.19736,3.62802 c -0.65854,1.99542 -1.5276,3.62803 -1.93124,3.62803 -0.40364,0 -1.70338,0.90322 -2.88832,2.00716 -2.28079,2.12488 -1.98162,5.49805 0.40635,4.5817 0.85466,-0.32797 1.37096,0.1657 1.37096,1.31086 0,1.66065 0.93579,1.83184 9.75,1.78364 8.03243,-0.0439 10.89505,0.38172 16.25,2.41622 4.69049,1.78205 6.46134,2.94709 6.36111,4.18498 -0.0956,1.18062 0.60589,1.71544 2.25,1.71544 1.31389,0 2.38889,0.45 2.38889,1 0,1.45479 -4.66302,1.22395 -7.79966,-0.38611 -5.27088,-2.70558 -29.20034,1.96571 -29.20034,5.70022 0,0.7789 -0.93266,2.60186 -2.07258,4.05103 -1.13992,1.44917 -1.65467,2.63486 -1.14389,2.63486 1.23847,0 -0.76924,10.27054 -2.19618,11.23469 -1.80958,1.22268 -3.48715,0.86551 -5.53004,-1.17738 z"
         style="fill:#a72c31;fill-opacity:1"
         inkscape:connector-curvature="0" />
      <path
         id="path3942"
         d="m 574.64778,120.95956 c 0,-0.55 -0.47656,-1 -1.05902,-1 -0.58246,0 -0.7809,0.45 -0.44098,1 0.33992,0.55 0.81648,1 1.05902,1 0.24254,0 0.44098,-0.45 0.44098,-1 z"
         style="fill:#a72c31;fill-opacity:1"
         inkscape:connector-curvature="0" />
      <path
         id="path3940"
         d="m 600.04674,148.41299 c -0.70695,-2.81669 -0.0986,-4.00387 1.53451,-2.99455 1.33904,0.82758 1.41184,5.54112 0.0856,5.54112 -0.53952,0 -1.26856,-1.14596 -1.62009,-2.54657 z"
         style="fill:#a72c31;fill-opacity:1"
         inkscape:connector-curvature="0" />
      <path
         id="path3938"
         d="m 588.88171,138.49816 c -2.89634,-2.77123 -5.25884,-5.3761 -5.25,-5.7886 0.0331,-1.54572 4.10387,-0.67928 4.69824,1 0.34067,0.9625 1.93376,2.99156 3.5402,4.50901 1.60644,1.51746 2.77609,3.33483 2.59922,4.0386 -0.18905,0.75223 -2.4919,-0.79698 -5.58766,-3.75901 z"
         style="fill:#a72c31;fill-opacity:1"
         inkscape:connector-curvature="0" />
      <path
         id="path3936"
         d="m 598.14778,137.95956 c 0.33992,-0.55 0.81648,-1 1.05902,-1 0.24254,0 0.44098,0.45 0.44098,1 0,0.55 -0.47656,1 -1.05902,1 -0.58246,0 -0.7809,-0.45 -0.44098,-1 z"
         style="fill:#a72c31;fill-opacity:1"
         inkscape:connector-curvature="0" />
      <path
         id="path3934"
         d="m 596.64778,134.90054 c 0,-0.58246 0.45,-0.7809 1,-0.44098 0.55,0.33992 1,0.81648 1,1.05902 0,0.24254 -0.45,0.44098 -1,0.44098 -0.55,0 -1,-0.47656 -1,-1.05902 z"
         style="fill:#a72c31;fill-opacity:1"
         inkscape:connector-curvature="0" />
      <path
         id="path3932"
         d="m 569.14778,132.95956 c -0.33992,-0.55 0.0835,-1 0.94098,-1 0.85746,0 1.55902,0.45 1.55902,1 0,0.55 -0.42344,1 -0.94098,1 -0.51754,0 -1.2191,-0.45 -1.55902,-1 z"
         style="fill:#a72c31;fill-opacity:1"
         inkscape:connector-curvature="0" />
      <path
         id="path3930"
         d="m 565.46028,129.27645 c 0.72187,-0.28887 1.58438,-0.25335 1.91667,0.0789 0.33229,0.33229 -0.25834,0.56864 -1.3125,0.52522 -1.16495,-0.048 -1.4019,-0.28494 -0.60417,-0.60416 z"
         style="fill:#a72c31;fill-opacity:1"
         inkscape:connector-curvature="0" />
      <path
         id="path3928"
         d="m 272.81445,105.1946 c 0.18333,-0.42073 1.90096,-3.34573 3.81696,-6.499999 3.45667,-5.69065 3.52053,-5.73504 8.25,-5.73504 2.6215,0 4.76637,0.26053 4.76637,0.57896 0,0.31842 -2.31749,3.24342 -5.14997,6.499999 -4.41703,5.07836 -5.6386,5.92104 -8.58333,5.92104 -1.88835,0 -3.28337,-0.34423 -3.10003,-0.76496 z"
         style="fill:#f7931d;fill-opacity:1"
         inkscape:connector-curvature="0" />
      <path
         id="path3926"
         d="m 804.24208,94.902571 c -2.6981,-0.45197 -7.64814,-2.17565 -11,-3.83042 -7.3683,-3.63761 -16.18242,-12.13758 -15.21106,-14.66892 0.54238,-1.41342 1.68918,-0.7252 6.60532,3.96401 7.63996,7.28728 15.16024,10.77389 24.53614,11.3756 12.1247,0.77812 22.59,-3.40133 31.0996,-12.42 3.4072,-3.61098 4.3264,-4.12761 5.2863,-2.97103 0.9292,1.11961 0.1843,2.40367 -3.719,6.41109 -5.7813,5.9354 -14.5169,10.60086 -22.6719,12.10838 -6.5486,1.21057 -7.8688,1.21334 -14.9254,0.0313 z"
         style="fill:#a72c31;fill-opacity:1"
         inkscape:connector-curvature="0" />
      <path
         id="path3924"
         transform="translate(310.71187,385.5212)"
         d="m 501.40625,-353.0625 c -7.16694,0.21221 -14.19106,4.02936 -17.375,10.3125 -6.15401,12.14422 -1.26961,26.3931 10.53125,30.78125 6.7774,2.52018 17.027,0.53337 22.625,-4.375 2.4261,-2.12724 2.19435,-3.89405 -0.78125,-5.84375 -2.4146,-1.5821 -2.6657,-1.54434 -4.875,0.53125 -3.3693,3.16524 -8.9329,4.47727 -13.125,3.09375 -3.8821,-1.28121 -8.46875,-6.19224 -8.46875,-9.0625 0,-1.81498 0.8728,-1.9375 15.5,-1.9375 l 15.5,0 0,-4.03125 c 0,-7.12924 -4.2373,-14.49687 -10,-17.40625 -2.9695,-1.4992 -6.27355,-2.15896 -9.53125,-2.0625 z m -1.0625,7.34375 c 3.51312,-0.0242 6.21704,0.41362 7.84375,1.28125 1.7538,0.93534 4.75,5.86736 4.75,7.8125 0,0.67203 -4.1373,1.0625 -11.5,1.0625 -11.0138,0 -11.5,-0.0837 -11.5,-2.09375 0,-2.82862 5.56545,-7.89402 8.84375,-8.03125 0.53484,-0.0224 1.06063,-0.0278 1.5625,-0.0312 z"
         style="fill:#a72c31;fill-opacity:1"
         inkscape:connector-curvature="0" />
      <path
         id="path3920"
         transform="translate(310.71187,385.5212)"
         d="m 531.9375,-351.5625 0,19.5 0,19.5 12,0 12,0 0,-13.5 0,-13.5 -7.5,0 -7.5,0 0,-6 0,-6 -4.5,0 -4.5,0 z m 11.34375,21 c 0.3337,-0.009 0.72106,0 1.15625,0 3.482,0 3.5,0.0238 3.5,4.5 0,4.47619 -0.0185,4.5 -3.5,4.5 -3.482,0 -3.5,-0.0238 -3.5,-4.5 0,-3.91667 0.008,-4.43424 2.34375,-4.5 z"
         style="fill:#a72c31;fill-opacity:1"
         inkscape:connector-curvature="0" />
      <path
         id="path3916"
         d="m 757.64778,68.959561 c -2.43325,-2.43325 -2.63435,-9.89339 -0.55261,-20.5 1.44924,-7.384 0.805,-9.784284 -2.00105,-7.455466 -1.44801,1.201743 -1.59821,1.082718 -1.29238,-1.024167 0.2283,-1.572805 1.42599,-2.822882 3.52002,-3.674002 2.79162,-1.134653 3.45147,-1.065371 5.47738,0.575114 l 2.3034,1.865178 -1.82924,10.998072 c -1.00608,6.048939 -1.54127,11.90537 -1.18931,13.01429 1.62062,5.106106 7.4679,2.701579 11.21058,-4.610024 1.18074,-2.306655 2.71569,-8.017811 3.41102,-12.691457 l 1.26422,-8.497538 3.33898,0 c 1.83645,0 3.33708,0.1125 3.33474,0.25 -0.002,0.1375 -1.12518,6.514663 -2.49519,14.171474 -1.37002,7.65681 -2.24764,14.164775 -1.95027,14.462145 0.29736,0.297369 1.4202,-0.0086 2.49519,-0.679948 1.68868,-1.0546 1.95452,-0.955154 1.95452,0.731151 0,1.073474 -1.00013,2.652287 -2.22251,3.508474 -4.17825,2.926563 -8.74382,1.426826 -8.8079,-2.893296 -0.0278,-1.872501 -0.11866,-1.898475 -1.0497,-0.299978 -2.65188,4.553007 -11.48819,6.181681 -14.91989,2.749978 z"
         style="fill:#a72c31;fill-opacity:1"
         inkscape:connector-curvature="0" />
      <path
         id="path3914"
         d="m 777.97985,30.382539 c -0.93845,-2.445566 8.20801,-11.053098 15.6469,-14.724946 6.15563,-3.038434 7.05503,-3.198032 18.02103,-3.198032 11.05,0 11.8295,0.141495 18.2833,3.318691 8.1935,4.033658 17.3374,12.728484 15.5945,14.828603 -0.9191,1.107426 -2.0899,0.392854 -6.2039,-3.786585 -3.0294,-3.077522 -7.7087,-6.401526 -11.6224,-8.256157 -5.9018,-2.796668 -7.4958,-3.104552 -16.0732,-3.104552 -8.7165,0 -10.0785,0.274109 -16.10503,3.24128 -3.96196,1.950671 -8.44877,5.235645 -11.26834,8.25 -2.57679,2.754796 -4.90617,5.00872 -5.17639,5.00872 -0.27022,0 -0.76363,-0.70966 -1.09647,-1.577022 z"
         style="fill:#a72c31;fill-opacity:1"
         inkscape:connector-curvature="0" />
      <path
         id="path3912"
         d="m 754.18289,21.372797 c -0.9322,-1.42272 -1.47921,-2.802472 -1.21556,-3.066115 0.57234,-0.572342 4.68045,3.677072 4.68045,4.84144 0,1.662516 -1.82504,0.727413 -3.46489,-1.775325 z"
         style="fill:#a72c31;fill-opacity:1"
         inkscape:connector-curvature="0" />
      <path
         id="path3910"
         d="m 744.1087,10.45127 c -1.62851,-1.3308811 -2.46727,-2.4359661 -1.86393,-2.4557461 1.3321,-0.04367 5.90582,3.7945651 5.27425,4.4261271 -0.24717,0.247171 -1.78181,-0.6395 -3.41032,-1.970381 z"
         style="fill:#a72c31;fill-opacity:1"
         inkscape:connector-curvature="0" />
      <path
         id="path3908"
         d="m 653.64778,-7.7820961 c 0,-1.416873 7.38032,-7.2629439 9.1439,-7.2430299 1.04853,0.01184 1.01589,0.242956 -0.1439,1.019003 -1.29681,0.867732 -1.23368,1.20677 0.46603,2.502893 1.84305,1.405424 1.76215,1.458427 -1.29328,0.847341 -2.59004,-0.518008 -3.76377,-0.177943 -5.71603,1.6561079 -1.3512,1.269384 -2.45672,1.817342 -2.45672,1.217685 z"
         style="fill:#a72c31;fill-opacity:1"
         inkscape:connector-curvature="0" />
      <path
         id="path3136"
         d="m 670.77561,-15.454291 -2.37217,-1.287281 3.28189,-0.656378 c 3.87658,-0.775314 4.89599,-0.136879 2.90293,1.818035 -1.19416,1.171303 -1.84611,1.192784 -3.81265,0.125624 z"
         style="fill:#a72c31;fill-opacity:1"
         inkscape:connector-curvature="0" />
    </g>
  </g>
</svg>
